<svg width="21" height="20" fill="none" xmlns="http://www.w3.org/2000/svg"><mask id="path-1-inside-1" fill="#fff"><path d="M20.8 10.01A10 10 0 1114.158.58l6.642 9.43zM5.786 9.294l4.29 4.288 10.01-10.009"/></mask><path d="M20.8 10.01h1.5v-.476l-.274-.389-1.226.864zM14.158.58l1.226-.863-.274-.39-.448-.16-.504 1.414zm-4.082 13.003l-1.06 1.061 1.06 1.06 1.061-1.06-1.06-1.06zm9.224-3.575a8.5 8.5 0 01-1.645 5.018l2.42 1.774a11.5 11.5 0 002.225-6.79l-3-.002zm-1.645 5.018a8.5 8.5 0 01-4.291 3.078l.905 2.86a11.5 11.5 0 005.805-4.164l-2.42-1.774zm-4.291 3.078a8.5 8.5 0 01-5.28-.05l-.96 2.843a11.5 11.5 0 007.145.067l-.905-2.86zm-5.28-.05a8.5 8.5 0 01-4.233-3.159L1.4 16.623a11.5 11.5 0 005.725 4.274l.96-2.843zM3.85 14.895A8.5 8.5 0 012.3 9.847l-3-.054a11.5 11.5 0 002.098 6.83l2.452-1.728zM2.3 9.847a8.5 8.5 0 011.731-4.99L1.643 3.042a11.5 11.5 0 00-2.341 6.75l3 .055zm1.731-4.99a8.5 8.5 0 014.343-3.004L7.52-1.022a11.5 11.5 0 00-5.876 4.064l2.39 1.815zm4.343-3.004a8.5 8.5 0 015.28.14l1.007-2.825a11.5 11.5 0 00-7.143-.19l.856 2.875zm4.557-.408l6.642 9.428 2.452-1.728-6.642-9.428-2.452 1.728zm-8.206 8.91l4.29 4.29 2.12-2.122-4.289-4.29-2.121 2.122zm6.411 4.289l10.01-10.009-2.121-2.121-10.01 10.009 2.122 2.121z" fill="#0DA800" mask="url(#path-1-inside-1)"/></svg>