<svg width="79" height="28" fill="none" xmlns="http://www.w3.org/2000/svg"><path d="M9.7 16.905c-2.418-.643-4.506-1.2-4.506-3.374a2.799 2.799 0 01.903-1.988 2.769 2.769 0 012.052-.722c2.04 0 2.654 1.323 3.25 2.604.491 1.06.955 2.06 2.203 2.06a1.734 1.734 0 001.285-.472 1.75 1.75 0 00.55-1.26c0-2.235-2.809-4.545-7.507-4.545-4.267 0-7.361 2.27-7.361 5.397 0 4.174 3.32 5.038 6.248 5.8 2.4.624 4.47 1.163 4.47 3.308 0 1.699-1.214 2.711-3.25 2.711-2.304 0-2.947-1.352-3.568-2.66-.5-1.05-.972-2.042-2.288-2.042-1.24 0-1.981.687-1.981 1.843 0 2.162 2.932 4.398 7.838 4.398 4.637 0 7.876-2.175 7.876-5.287 0-4.116-3.302-4.996-6.215-5.771zm30.643-7.697a1.986 1.986 0 00-1.56.555 2.007 2.007 0 00-.605 1.547c0 1.235.706 1.972 1.453 2.753.825.861 1.677 1.753 1.677 3.43 0 4.68-3.047 8.45-5.57 8.45a1.857 1.857 0 01-1.386-.535c-.55-.562-.818-1.555-.795-2.953l.074-12.217a1.01 1.01 0 00-.32-.819 1.292 1.292 0 00-1.1-.17l-3.606.738a.843.843 0 00-.78.805v.11c0 .368.272.617.561.881a2.005 2.005 0 01.84 1.6v5.11c0 4.663-2.365 7.448-4.65 7.448a1.778 1.778 0 01-1.329-.534c-.556-.568-.838-1.563-.816-2.88l.074-12.292a.896.896 0 00-.26-.716 1.482 1.482 0 00-1.152-.164l-3.91.63a.843.843 0 00-.739.805v.11c0 .368.273.617.562.881a2.003 2.003 0 01.838 1.6v7.514c0 6.41 4.117 7.1 5.886 7.1a7.066 7.066 0 003.504-.825 7.11 7.11 0 002.65-2.447 5.026 5.026 0 001.95 2.458 4.986 4.986 0 003.02.815c4.574 0 9.202-4.385 9.202-12.766 0-3.717-1.422-6.027-3.713-6.027v.005zm13.785 8.777a22.898 22.898 0 01-5.121.228 13.57 13.57 0 01-.096-1.646c0-3.243 1.77-5.598 4.208-5.598.909.01 1.78.37 2.432 1.005a3.577 3.577 0 011.078 2.411c.04 2.679-1.245 3.322-2.503 3.6h.002zm7.148 3.67a.878.878 0 00-1.006.306l-.015.023c-.77 1.546-2.871 2.626-5.112 2.626-2.65 0-4.715-1.628-5.694-4.477 1.849.215 3.719.145 5.546-.206 3.782-.818 6.041-2.89 6.041-5.544a4.53 4.53 0 00-1.335-3.327c-1.22-1.215-3.203-1.872-5.584-1.848-5.245.039-9.053 3.928-9.053 9.249 0 5.709 3.743 9.544 9.312 9.544a7.578 7.578 0 005.289-1.94 6.485 6.485 0 002.032-3.622v-.007a.712.712 0 00-.421-.776v-.001zm7.903 4.199a1.728 1.728 0 01-.85-1.438V.891a.875.875 0 00-.387-.76 1.17 1.17 0 00-1.141.043l-3.72 1.852c-.33.166-.705.353-.705.792v.11c0 .322.239.552.515.819.378.364.849.278.849 1.158v19.512a1.778 1.778 0 01-.768 1.441 1.303 1.303 0 00-.596.965v.112c0 .422.36.695.914.695h5.599c.559 0 .95-.286.95-.695v-.112c0-.437-.321-.696-.66-.97zm8.361 0a1.73 1.73 0 01-.85-1.438V.891a.876.876 0 00-.39-.762 1.171 1.171 0 00-1.14.043l-3.72 1.854c-.33.166-.703.353-.703.792v.11c0 .322.238.552.514.819.379.364.85.278.85 1.158v19.512a1.775 1.775 0 01-.769 1.441 1.305 1.305 0 00-.595.965v.112c0 .422.359.695.914.695h5.598c.56 0 .95-.286.95-.695v-.112c0-.437-.32-.696-.66-.97" fill="#508"/></svg>